<svg width="54" height="54" viewBox="0 0 54 54" fill="none" xmlns="http://www.w3.org/2000/svg">
<circle cx="27" cy="27" r="27" fill="#750D0D"/>
<path d="M44.199 23.0011L41.964 20.6491C41.757 17.1091 38.5095 14.3836 34.779 15.1201C32.772 15.5161 31.086 17.0041 30.381 18.9241C29.748 20.6461 30.4725 22.6531 31.1205 24.0001C26.0625 25.3096 20.2965 25.5721 14.25 24.6886C12.252 24.3976 10.5 26.1376 10.5 28.5001C10.5 32.8891 14.649 43.5001 27 43.5001C37.5015 43.5001 40.7235 34.5781 39.675 27.8161C39.513 26.7721 39.7845 25.7236 40.4895 24.9376C40.5465 24.8746 40.6005 24.8101 40.6545 24.7441L43.944 23.8936C44.3415 23.7901 44.4825 23.2996 44.199 23.0011Z" fill="#DADADA"/>
<path d="M36 22.5C36.8284 22.5 37.5 21.8284 37.5 21C37.5 20.1716 36.8284 19.5 36 19.5C35.1716 19.5 34.5 20.1716 34.5 21C34.5 21.8284 35.1716 22.5 36 22.5Z" fill="#3D3D3D"/>
<path d="M42 15.75C42 14.508 40.992 13.5 39.75 13.5C39.378 13.5 39.033 13.599 38.724 13.758C38.2515 12.723 37.212 12 36 12C35.0985 12 34.3005 12.405 33.75 13.035C33.0675 12.2535 31.9995 11.817 30.828 12.075C29.7045 12.3225 28.7835 13.2585 28.56 14.3865C28.1865 16.2735 29.5815 17.9175 31.3815 17.988V18H39.816V17.9925C41.028 17.9565 42 16.9695 42 15.75Z" fill="#7E7E7E"/>
</svg>
