<svg width="674" height="374" viewBox="0 0 674 374" fill="none" xmlns="http://www.w3.org/2000/svg">
<g filter="url(#filter0_dd_62:247)">
<rect x="3" y="3" width="668.354" height="367" rx="5.16901" fill="#D3D3D3"/>
<rect x="8.16907" y="136.877" width="176.78" height="7.75352" rx="3.87676" fill="black"/>
<rect x="236.639" y="136.877" width="234.156" height="7.75352" rx="3.87676" fill="black"/>
<rect x="8.16907" y="279.025" width="176.78" height="7.75352" rx="3.87676" fill="black"/>
<rect x="236.639" y="279.025" width="234.156" height="7.75352" rx="3.87676" fill="black"/>
<g clip-path="url(#clip0_62:247)">
<rect width="462.627" height="124.573" transform="translate(8.16907 8.16901)" fill="#D3D3D3"/>
<rect x="8.16907" y="8.16901" width="465.211" height="128.708" rx="5.16901" fill="#FF0000" fill-opacity="0.3"/>
<path d="M209.883 65.536H215.579C218.221 65.536 220.129 65.921 221.301 66.6909C222.482 67.4609 223.073 68.6771 223.073 70.3395C223.073 71.4595 222.784 72.3913 222.207 73.135C221.629 73.8788 220.798 74.3469 219.713 74.5394V74.6706C221.06 74.9243 222.049 75.4275 222.679 76.1799C223.318 76.9236 223.637 77.9342 223.637 79.2117C223.637 80.9353 223.033 82.2872 221.826 83.2671C220.627 84.2383 218.956 84.7239 216.812 84.7239H209.883V65.536ZM213.019 73.4632H216.038C217.351 73.4632 218.309 73.2575 218.912 72.8463C219.516 72.4263 219.818 71.7176 219.818 70.7202C219.818 69.8189 219.49 69.1671 218.834 68.7646C218.186 68.3621 217.154 68.1609 215.736 68.1609H213.019V73.4632ZM213.019 76.0093V82.0859H216.353C217.665 82.0859 218.654 81.8366 219.319 81.3378C219.993 80.8304 220.33 80.0341 220.33 78.9492C220.33 77.9517 219.989 77.2124 219.306 76.7311C218.624 76.2499 217.587 76.0093 216.196 76.0093H213.019Z" fill="black"/>
</g>
<rect x="532.824" y="73.8155" width="292.049" height="7.75352" rx="3.87676" transform="rotate(90 532.824 73.8155)" fill="black"/>
<rect x="8.16907" y="148.766" width="462.627" height="126.124" rx="5.16901" fill="#0000FF" fill-opacity="0.3"/>
<path d="M216.217 201.647C214.414 201.647 212.997 202.286 211.964 203.563C210.932 204.84 210.416 206.603 210.416 208.852C210.416 211.206 210.91 212.986 211.899 214.194C212.896 215.401 214.335 216.005 216.217 216.005C217.03 216.005 217.818 215.926 218.579 215.769C219.34 215.602 220.132 215.392 220.954 215.139V217.829C219.45 218.398 217.743 218.682 215.836 218.682C213.027 218.682 210.871 217.834 209.366 216.136C207.861 214.43 207.108 211.993 207.108 208.826C207.108 206.831 207.471 205.085 208.198 203.589C208.932 202.093 209.991 200.947 211.374 200.151C212.756 199.354 214.379 198.956 216.243 198.956C218.203 198.956 220.014 199.368 221.676 200.19L220.548 202.802C219.9 202.495 219.213 202.229 218.487 202.001C217.77 201.765 217.013 201.647 216.217 201.647Z" fill="black"/>
<rect x="8.16907" y="290.914" width="462.627" height="44.4535" rx="5.16901" fill="#FFA500" fill-opacity="0.3"/>
<path d="M220.991 312.721C220.991 315.888 220.112 318.312 218.353 319.992C216.595 321.663 214.062 322.499 210.754 322.499H205.387V303.311H211.319C214.372 303.311 216.748 304.133 218.445 305.778C220.143 307.423 220.991 309.737 220.991 312.721ZM217.684 312.826C217.684 308.232 215.536 305.936 211.24 305.936H208.523V319.861H210.754C215.374 319.861 217.684 317.516 217.684 312.826Z" fill="black"/>
<g filter="url(#filter1_dd_62:247)">
<g clip-path="url(#clip1_62:247)">
<rect x="666.185" y="72.9951" width="292.049" height="129.225" rx="5.16901" transform="rotate(90 666.185 72.9951)" fill="#E5E5E5"/>
<rect x="536.959" y="72.7817" width="129.225" height="293.6" rx="5.16901" fill="#EE82EE" fill-opacity="0.3"/>
<path d="M605.314 236.693L603.398 231.364H596.062L594.185 236.693H590.877L598.057 217.426H601.469L608.648 236.693H605.314ZM602.571 228.661L600.773 223.437C600.642 223.087 600.458 222.536 600.222 221.784C599.995 221.031 599.837 220.48 599.75 220.13C599.513 221.206 599.168 222.383 598.713 223.66L596.98 228.661H602.571Z" fill="black"/>
</g>
</g>
</g>
<defs>
<filter id="filter0_dd_62:247" x="0.415493" y="0.932394" width="673.523" height="372.686" filterUnits="userSpaceOnUse" color-interpolation-filters="sRGB">
<feFlood flood-opacity="0" result="BackgroundImageFix"/>
<feColorMatrix in="SourceAlpha" type="matrix" values="0 0 0 0 0 0 0 0 0 0 0 0 0 0 0 0 0 0 127 0" result="hardAlpha"/>
<feOffset dy="1.0338"/>
<feGaussianBlur stdDeviation="1.29225"/>
<feColorMatrix type="matrix" values="0 0 0 0 0 0 0 0 0 0 0 0 0 0 0 0 0 0 0.14 0"/>
<feBlend mode="normal" in2="BackgroundImageFix" result="effect1_dropShadow_62:247"/>
<feColorMatrix in="SourceAlpha" type="matrix" values="0 0 0 0 0 0 0 0 0 0 0 0 0 0 0 0 0 0 127 0" result="hardAlpha"/>
<feOffset dy="0.516901"/>
<feGaussianBlur stdDeviation="1.29225"/>
<feColorMatrix type="matrix" values="0 0 0 0 0 0 0 0 0 0 0 0 0 0 0 0 0 0 0.12 0"/>
<feBlend mode="normal" in2="effect1_dropShadow_62:247" result="effect2_dropShadow_62:247"/>
<feBlend mode="normal" in="SourceGraphic" in2="effect2_dropShadow_62:247" result="shape"/>
</filter>
<filter id="filter1_dd_62:247" x="535.723" y="72.0059" width="131.698" height="294.77" filterUnits="userSpaceOnUse" color-interpolation-filters="sRGB">
<feFlood flood-opacity="0" result="BackgroundImageFix"/>
<feColorMatrix in="SourceAlpha" type="matrix" values="0 0 0 0 0 0 0 0 0 0 0 0 0 0 0 0 0 0 127 0" result="hardAlpha"/>
<feOffset dy="0.494596"/>
<feGaussianBlur stdDeviation="0.618245"/>
<feColorMatrix type="matrix" values="0 0 0 0 0 0 0 0 0 0 0 0 0 0 0 0 0 0 0.14 0"/>
<feBlend mode="normal" in2="BackgroundImageFix" result="effect1_dropShadow_62:247"/>
<feColorMatrix in="SourceAlpha" type="matrix" values="0 0 0 0 0 0 0 0 0 0 0 0 0 0 0 0 0 0 127 0" result="hardAlpha"/>
<feOffset dy="0.247298"/>
<feGaussianBlur stdDeviation="0.618245"/>
<feColorMatrix type="matrix" values="0 0 0 0 0 0 0 0 0 0 0 0 0 0 0 0 0 0 0.12 0"/>
<feBlend mode="normal" in2="effect1_dropShadow_62:247" result="effect2_dropShadow_62:247"/>
<feBlend mode="normal" in="SourceGraphic" in2="effect2_dropShadow_62:247" result="shape"/>
</filter>
<clipPath id="clip0_62:247">
<rect width="462.627" height="124.573" fill="white" transform="translate(8.16907 8.16901)"/>
</clipPath>
<clipPath id="clip1_62:247">
<rect x="666.185" y="72.9951" width="292.049" height="129.225" rx="5.16901" transform="rotate(90 666.185 72.9951)" fill="white"/>
</clipPath>
</defs>
</svg>
