<svg width="652" height="114" viewBox="0 0 652 114" fill="none" xmlns="http://www.w3.org/2000/svg">
<rect width="652" height="114" fill="#1F2937"/>
<path d="M297.021 61.7012C297.021 62.5703 296.855 63.3857 296.523 64.1475C296.191 64.9092 295.737 65.5781 295.161 66.1543C294.595 66.7207 293.931 67.1699 293.169 67.502C292.407 67.834 291.592 68 290.723 68H280.22V46.9941H290.723C291.592 46.9941 292.407 47.1602 293.169 47.4922C293.931 47.8242 294.595 48.2783 295.161 48.8545C295.737 49.4209 296.191 50.085 296.523 50.8467C296.855 51.6084 297.021 52.4238 297.021 53.293C297.021 53.6836 296.968 54.084 296.86 54.4941C296.753 54.9043 296.602 55.2998 296.406 55.6807C296.211 56.0615 295.977 56.4082 295.703 56.7207C295.43 57.0332 295.127 57.292 294.795 57.4971C295.137 57.6826 295.444 57.9365 295.718 58.2588C295.991 58.5713 296.226 58.918 296.421 59.2988C296.616 59.6797 296.763 60.0801 296.86 60.5C296.968 60.9102 297.021 61.3105 297.021 61.7012ZM284.424 63.7959H290.723C291.016 63.7959 291.289 63.7422 291.543 63.6348C291.797 63.5273 292.017 63.3809 292.202 63.1953C292.397 63 292.549 62.7754 292.656 62.5215C292.764 62.2676 292.817 61.9941 292.817 61.7012C292.817 61.4082 292.764 61.1348 292.656 60.8809C292.549 60.627 292.397 60.4072 292.202 60.2217C292.017 60.0264 291.797 59.875 291.543 59.7676C291.289 59.6602 291.016 59.6064 290.723 59.6064H284.424V63.7959ZM284.424 55.4023H290.723C291.016 55.4023 291.289 55.3486 291.543 55.2412C291.797 55.1338 292.017 54.9873 292.202 54.8018C292.397 54.6064 292.549 54.3818 292.656 54.1279C292.764 53.8643 292.817 53.5859 292.817 53.293C292.817 53 292.764 52.7266 292.656 52.4727C292.549 52.2188 292.397 51.999 292.202 51.8135C292.017 51.6182 291.797 51.4668 291.543 51.3594C291.289 51.252 291.016 51.1982 290.723 51.1982H284.424V55.4023ZM308.726 68H304.536V51.1982H298.223V46.9941H315.024V51.1982H308.726V68ZM315.874 53.293C315.874 52.4238 316.04 51.6084 316.372 50.8467C316.704 50.085 317.153 49.4209 317.72 48.8545C318.296 48.2783 318.965 47.8242 319.727 47.4922C320.488 47.1602 321.304 46.9941 322.173 46.9941H331.812V51.1982H322.173C321.88 51.1982 321.606 51.252 321.353 51.3594C321.099 51.4668 320.874 51.6182 320.679 51.8135C320.493 51.999 320.347 52.2188 320.239 52.4727C320.132 52.7266 320.078 53 320.078 53.293C320.078 53.5859 320.132 53.8643 320.239 54.1279C320.347 54.3818 320.493 54.6064 320.679 54.8018C320.874 54.9873 321.099 55.1338 321.353 55.2412C321.606 55.3486 321.88 55.4023 322.173 55.4023H326.377C327.246 55.4023 328.062 55.5684 328.823 55.9004C329.595 56.2227 330.264 56.6719 330.83 57.248C331.406 57.8145 331.855 58.4834 332.178 59.2549C332.51 60.0166 332.676 60.832 332.676 61.7012C332.676 62.5703 332.51 63.3857 332.178 64.1475C331.855 64.9092 331.406 65.5781 330.83 66.1543C330.264 66.7207 329.595 67.1699 328.823 67.502C328.062 67.834 327.246 68 326.377 68H317.046V63.7959H326.377C326.67 63.7959 326.943 63.7422 327.197 63.6348C327.451 63.5273 327.671 63.3809 327.856 63.1953C328.052 63 328.203 62.7754 328.311 62.5215C328.418 62.2676 328.472 61.9941 328.472 61.7012C328.472 61.4082 328.418 61.1348 328.311 60.8809C328.203 60.627 328.052 60.4072 327.856 60.2217C327.671 60.0264 327.451 59.875 327.197 59.7676C326.943 59.6602 326.67 59.6064 326.377 59.6064H322.173C321.304 59.6064 320.488 59.4404 319.727 59.1084C318.965 58.7764 318.296 58.3271 317.72 57.7607C317.153 57.1846 316.704 56.5156 316.372 55.7539C316.04 54.9824 315.874 54.1621 315.874 53.293ZM335.723 66.4473C335.723 65.793 335.869 65.2998 336.162 64.9678C336.465 64.626 336.895 64.4551 337.451 64.4551C338.018 64.4551 338.457 64.626 338.77 64.9678C339.092 65.2998 339.253 65.793 339.253 66.4473C339.253 67.082 339.092 67.5703 338.77 67.9121C338.447 68.2539 338.008 68.4248 337.451 68.4248C336.953 68.4248 336.538 68.2734 336.206 67.9707C335.884 67.6582 335.723 67.1504 335.723 66.4473ZM358.018 52.8242C358.018 54.9922 357.275 56.6621 355.791 57.834C354.316 58.9961 352.202 59.5771 349.448 59.5771H346.929V68H344.438V46.584H349.99C355.342 46.584 358.018 48.6641 358.018 52.8242ZM346.929 57.4385H349.17C351.377 57.4385 352.974 57.082 353.96 56.3691C354.946 55.6562 355.439 54.5137 355.439 52.9414C355.439 51.5254 354.976 50.4707 354.048 49.7773C353.12 49.084 351.675 48.7373 349.712 48.7373H346.929V57.4385ZM372.021 68L371.538 65.7148H371.421C370.62 66.7207 369.819 67.4043 369.019 67.7656C368.228 68.1172 367.236 68.293 366.045 68.293C364.453 68.293 363.203 67.8828 362.295 67.0625C361.396 66.2422 360.947 65.0752 360.947 63.5615C360.947 60.3193 363.54 58.6201 368.726 58.4639L371.45 58.376V57.3799C371.45 56.1201 371.177 55.1924 370.63 54.5967C370.093 53.9912 369.229 53.6885 368.037 53.6885C366.699 53.6885 365.186 54.0986 363.496 54.9189L362.749 53.0586C363.54 52.6289 364.404 52.292 365.342 52.0479C366.289 51.8037 367.236 51.6816 368.184 51.6816C370.098 51.6816 371.514 52.1064 372.432 52.9561C373.359 53.8057 373.823 55.168 373.823 57.043V68H372.021ZM366.528 66.2861C368.042 66.2861 369.229 65.8711 370.088 65.041C370.957 64.2109 371.392 63.0488 371.392 61.5547V60.1045L368.96 60.207C367.026 60.2754 365.63 60.5781 364.771 61.1152C363.921 61.6426 363.496 62.4678 363.496 63.5908C363.496 64.4697 363.76 65.1387 364.287 65.5977C364.824 66.0566 365.571 66.2861 366.528 66.2861ZM386.172 51.6523C386.885 51.6523 387.524 51.7109 388.091 51.8281L387.754 54.084C387.09 53.9375 386.504 53.8643 385.996 53.8643C384.697 53.8643 383.584 54.3916 382.656 55.4463C381.738 56.501 381.279 57.8145 381.279 59.3867V68H378.848V51.9453H380.854L381.133 54.9189H381.25C381.846 53.874 382.563 53.0684 383.403 52.502C384.243 51.9355 385.166 51.6523 386.172 51.6523ZM393.496 59.7822C393.916 59.1865 394.556 58.4053 395.415 57.4385L400.601 51.9453H403.486L396.982 58.7861L403.94 68H400.996L395.327 60.4121L393.496 61.9941V68H391.094V45.207H393.496V57.292C393.496 57.8291 393.457 58.6592 393.379 59.7822H393.496ZM409.287 68H406.855V51.9453H409.287V68ZM406.65 47.5947C406.65 47.0381 406.787 46.6328 407.061 46.3789C407.334 46.1152 407.676 45.9834 408.086 45.9834C408.477 45.9834 408.813 46.1152 409.097 46.3789C409.38 46.6426 409.521 47.0479 409.521 47.5947C409.521 48.1416 409.38 48.5518 409.097 48.8252C408.813 49.0889 408.477 49.2207 408.086 49.2207C407.676 49.2207 407.334 49.0889 407.061 48.8252C406.787 48.5518 406.65 48.1416 406.65 47.5947ZM425.43 68V57.6143C425.43 56.3057 425.132 55.3291 424.536 54.6846C423.94 54.04 423.008 53.7178 421.738 53.7178C420.059 53.7178 418.828 54.1719 418.047 55.0801C417.266 55.9883 416.875 57.4873 416.875 59.5771V68H414.443V51.9453H416.421L416.816 54.1426H416.934C417.432 53.3516 418.13 52.7412 419.028 52.3115C419.927 51.8721 420.928 51.6523 422.031 51.6523C423.965 51.6523 425.42 52.1211 426.396 53.0586C427.373 53.9863 427.861 55.4756 427.861 57.5264V68H425.43ZM446.011 51.9453V53.4834L443.037 53.835C443.311 54.1768 443.555 54.626 443.77 55.1826C443.984 55.7295 444.092 56.3496 444.092 57.043C444.092 58.6152 443.555 59.8701 442.48 60.8076C441.406 61.7451 439.932 62.2139 438.057 62.2139C437.578 62.2139 437.129 62.1748 436.709 62.0967C435.674 62.6436 435.156 63.332 435.156 64.1621C435.156 64.6016 435.337 64.9287 435.698 65.1436C436.06 65.3486 436.68 65.4512 437.559 65.4512H440.4C442.139 65.4512 443.472 65.8174 444.399 66.5498C445.337 67.2822 445.806 68.3467 445.806 69.7432C445.806 71.5205 445.093 72.873 443.667 73.8008C442.241 74.7383 440.161 75.207 437.427 75.207C435.327 75.207 433.706 74.8164 432.563 74.0352C431.431 73.2539 430.864 72.1504 430.864 70.7246C430.864 69.748 431.177 68.9033 431.802 68.1904C432.427 67.4775 433.306 66.9941 434.438 66.7402C434.028 66.5547 433.682 66.2666 433.398 65.876C433.125 65.4854 432.988 65.0312 432.988 64.5137C432.988 63.9277 433.145 63.415 433.457 62.9756C433.77 62.5361 434.263 62.1113 434.937 61.7012C434.106 61.3594 433.428 60.7783 432.9 59.958C432.383 59.1377 432.124 58.2002 432.124 57.1455C432.124 55.3877 432.651 54.0352 433.706 53.0879C434.761 52.1309 436.255 51.6523 438.188 51.6523C439.028 51.6523 439.785 51.75 440.459 51.9453H446.011ZM433.208 70.6953C433.208 71.5645 433.574 72.2236 434.307 72.6729C435.039 73.1221 436.089 73.3467 437.456 73.3467C439.497 73.3467 441.006 73.0391 441.982 72.4238C442.969 71.8184 443.462 70.9932 443.462 69.9482C443.462 69.0791 443.193 68.4736 442.656 68.1318C442.119 67.7998 441.108 67.6338 439.624 67.6338H436.709C435.605 67.6338 434.746 67.8975 434.131 68.4248C433.516 68.9521 433.208 69.709 433.208 70.6953ZM434.526 57.0869C434.526 58.21 434.844 59.0596 435.479 59.6357C436.113 60.2119 436.997 60.5 438.13 60.5C440.503 60.5 441.689 59.3477 441.689 57.043C441.689 54.6309 440.488 53.4248 438.086 53.4248C436.943 53.4248 436.064 53.7324 435.449 54.3477C434.834 54.9629 434.526 55.876 434.526 57.0869Z" fill="white"/>
<circle cx="232" cy="57" r="27" fill="#750D0D"/>
<path d="M249.199 53.0011L246.964 50.6491C246.757 47.1091 243.51 44.3836 239.779 45.1201C237.772 45.5161 236.086 47.0041 235.381 48.9241C234.748 50.6461 235.472 52.6531 236.12 54.0001C231.062 55.3096 225.297 55.5721 219.25 54.6886C217.252 54.3976 215.5 56.1376 215.5 58.5001C215.5 62.8891 219.649 73.5001 232 73.5001C242.501 73.5001 245.724 64.5781 244.675 57.8161C244.513 56.7721 244.785 55.7236 245.49 54.9376C245.546 54.8746 245.601 54.8101 245.655 54.7441L248.944 53.8936C249.341 53.7901 249.482 53.2996 249.199 53.0011Z" fill="#DADADA"/>
<path d="M241 52.5C241.828 52.5 242.5 51.8284 242.5 51C242.5 50.1716 241.828 49.5 241 49.5C240.172 49.5 239.5 50.1716 239.5 51C239.5 51.8284 240.172 52.5 241 52.5Z" fill="#3D3D3D"/>
<path d="M247 45.75C247 44.508 245.992 43.5 244.75 43.5C244.378 43.5 244.033 43.599 243.724 43.758C243.252 42.723 242.212 42 241 42C240.099 42 239.301 42.405 238.75 43.035C238.068 42.2535 237 41.817 235.828 42.075C234.705 42.3225 233.784 43.2585 233.56 44.3865C233.187 46.2735 234.582 47.9175 236.382 47.988V48H244.816V47.9925C246.028 47.9565 247 46.9695 247 45.75Z" fill="#7E7E7E"/>
</svg>
